<svg width="40" height="40" viewBox="0 0 37 37" fill="none" xmlns="http://www.w3.org/2000/svg">
<path d="M24.425 18.8C24.425 20.2919 23.8324 21.7226 22.7775 22.7775C21.7226 23.8324 20.2919 24.425 18.8 24.425C17.3082 24.425 15.8775 23.8324 14.8226 22.7775C13.7677 21.7226 13.175 20.2919 13.175 18.8C13.175 18.4794 13.2088 18.1663 13.2669 17.8625H11.3V25.3569C11.3 25.8782 11.7219 26.3 12.2432 26.3H25.3588C25.6086 26.2996 25.848 26.2 26.0245 26.0232C26.2009 25.8463 26.3 25.6067 26.3 25.3569V17.8625H24.3332C24.3913 18.1663 24.425 18.4794 24.425 18.8ZM18.8 22.55C19.2926 22.5499 19.7804 22.4528 20.2354 22.2642C20.6904 22.0755 21.1039 21.7992 21.4521 21.4508C21.8003 21.1024 22.0765 20.6888 22.2649 20.2337C22.4533 19.7785 22.5502 19.2908 22.55 18.7982C22.5499 18.3056 22.4528 17.8179 22.2642 17.3628C22.0755 16.9078 21.7992 16.4944 21.4508 16.1461C21.1024 15.7979 20.6888 15.5217 20.2337 15.3333C19.7785 15.1449 19.2908 15.048 18.7982 15.0482C17.8034 15.0484 16.8494 15.4438 16.1461 16.1475C15.4429 16.8511 15.0479 17.8052 15.0482 18.8C15.0484 19.7949 15.4438 20.7488 16.1475 21.4521C16.8511 22.1553 17.8052 22.5503 18.8 22.55ZM23.3 14.8625H25.5482C25.6975 14.8625 25.8408 14.8033 25.9466 14.6979C26.0524 14.5925 26.1121 14.4494 26.1125 14.3V12.0519C26.1125 11.9022 26.0531 11.7587 25.9472 11.6528C25.8414 11.547 25.6979 11.4875 25.5482 11.4875H23.3C23.1504 11.4875 23.0068 11.547 22.901 11.6528C22.7951 11.7587 22.7357 11.9022 22.7357 12.0519V14.3C22.7375 14.6094 22.9907 14.8625 23.3 14.8625ZM18.8 0.800049C14.0262 0.800049 9.44778 2.69647 6.07213 6.07213C2.69647 9.44778 0.800049 14.0262 0.800049 18.8C0.800049 23.5739 2.69647 28.1523 6.07213 31.528C9.44778 34.9036 14.0262 36.8 18.8 36.8C21.1638 36.8 23.5045 36.3345 25.6884 35.4299C27.8722 34.5253 29.8565 33.1994 31.528 31.528C33.1994 29.8565 34.5253 27.8722 35.4299 25.6884C36.3345 23.5045 36.8 21.1638 36.8 18.8C36.8 16.4363 36.3345 14.0956 35.4299 11.9117C34.5253 9.72789 33.1994 7.74358 31.528 6.07213C29.8565 4.40067 27.8722 3.0748 25.6884 2.17022C23.5045 1.26563 21.1638 0.800049 18.8 0.800049ZM28.175 26.0919C28.175 27.2375 27.2375 28.175 26.0919 28.175H11.5082C10.3625 28.175 9.42505 27.2375 9.42505 26.0919V11.5082C9.42505 10.3625 10.3625 9.42505 11.5082 9.42505H26.0919C27.2375 9.42505 28.175 10.3625 28.175 11.5082V26.0919Z" fill="#F6F4F4"/>
</svg>
