<svg width="40" height="40" viewBox="0 0 37 37" fill="none" xmlns="http://www.w3.org/2000/svg">
<path d="M18.8 0.800049C8.8588 0.800049 0.800049 8.8588 0.800049 18.8C0.800049 28.7413 8.8588 36.8 18.8 36.8C28.7413 36.8 36.8 28.7413 36.8 18.8C36.8 8.8588 28.7413 0.800049 18.8 0.800049ZM14.3938 26.2607H10.7488V14.5307H14.3938V26.2607ZM12.5488 13.0907C11.3975 13.0907 10.6532 12.275 10.6532 11.2663C10.6532 10.2369 11.42 9.44567 12.5957 9.44567C13.7713 9.44567 14.4913 10.2369 14.5138 11.2663C14.5138 12.275 13.7713 13.0907 12.5488 13.0907ZM27.7063 26.2607H24.0613V19.76C24.0613 18.2469 23.5325 17.2194 22.2144 17.2194C21.2075 17.2194 20.6094 17.915 20.345 18.5844C20.2475 18.8225 20.2232 19.16 20.2232 19.4957V26.2588H16.5763V18.2713C16.5763 16.8069 16.5294 15.5825 16.4807 14.5288H19.6475L19.8144 16.1582H19.8875C20.3675 15.3932 21.5432 14.2644 23.51 14.2644C25.9082 14.2644 27.7063 15.8713 27.7063 19.325V26.2607Z" fill="#F6F4F4"/>
</svg>
